<svg width="122" height="33" viewBox="0 0 122 33" fill="none" xmlns="http://www.w3.org/2000/svg">
<path d="M17.4688 2.12299V6.44637H11.5991V24.2764H6.20276V6.44637H0.333064V2.12299H17.4688ZM25.5734 9.60212C26.2046 8.63436 26.9935 7.87698 27.9402 7.32998C28.8869 6.76195 29.9389 6.47793 31.096 6.47793V12.1898H29.6128C28.2663 12.1898 27.2565 12.4844 26.5832 13.0734C25.91 13.6415 25.5734 14.6513 25.5734 16.103V24.2764H20.1771V6.66727H25.5734V9.60212ZM32.6023 15.4403C32.6023 13.631 32.939 12.0426 33.6122 10.6751C34.3065 9.30759 35.2427 8.25567 36.4208 7.51933C37.599 6.78298 38.9139 6.41481 40.3655 6.41481C41.6068 6.41481 42.6902 6.66727 43.6159 7.17219C44.5626 7.67711 45.2885 8.33982 45.7934 9.16032V6.66727H51.1897V24.2764H45.7934V21.7833C45.2674 22.6038 44.5311 23.2665 43.5844 23.7714C42.6587 24.2764 41.5752 24.5288 40.3339 24.5288C38.9033 24.5288 37.599 24.1607 36.4208 23.4243C35.2427 22.6669 34.3065 21.6045 33.6122 20.237C32.939 18.8485 32.6023 17.2496 32.6023 15.4403ZM45.7934 15.4718C45.7934 14.1254 45.4147 13.0629 44.6573 12.2845C43.921 11.5061 43.0163 11.1169 41.9434 11.1169C40.8704 11.1169 39.9552 11.5061 39.1979 12.2845C38.4615 13.0419 38.0934 14.0938 38.0934 15.4403C38.0934 16.7867 38.4615 17.8597 39.1979 18.6591C39.9552 19.4375 40.8704 19.8268 41.9434 19.8268C43.0163 19.8268 43.921 19.4375 44.6573 18.6591C45.4147 17.8807 45.7934 16.8183 45.7934 15.4718ZM63.0147 19.2272L66.8331 6.66727H72.5766L66.3282 24.2764H59.6696L53.4212 6.66727H59.1962L63.0147 19.2272ZM80.2443 0.923806V24.2764H74.848V0.923806H80.2443ZM92.1706 24.5288C90.4455 24.5288 88.8886 24.1607 87.5001 23.4243C86.1326 22.688 85.0491 21.6361 84.2497 20.2686C83.4713 18.9011 83.082 17.3022 83.082 15.4718C83.082 13.6625 83.4818 12.0741 84.2812 10.7066C85.0807 9.3181 86.1747 8.25567 87.5632 7.51933C88.9517 6.78298 90.5086 6.41481 92.2337 6.41481C93.9589 6.41481 95.5157 6.78298 96.9042 7.51933C98.2928 8.25567 99.3868 9.3181 100.186 10.7066C100.986 12.0741 101.385 13.6625 101.385 15.4718C101.385 17.2811 100.975 18.88 100.155 20.2686C99.3552 21.6361 98.2507 22.688 96.8411 23.4243C95.4526 24.1607 93.8958 24.5288 92.1706 24.5288ZM92.1706 19.8583C93.2015 19.8583 94.0746 19.4796 94.7899 18.7222C95.5262 17.9649 95.8944 16.8814 95.8944 15.4718C95.8944 14.0623 95.5367 12.9788 94.8214 12.2214C94.1272 11.464 93.2646 11.0853 92.2337 11.0853C91.1818 11.0853 90.3087 11.464 89.6144 12.2214C88.9202 12.9577 88.5731 14.0412 88.5731 15.4718C88.5731 16.8814 88.9097 17.9649 89.5829 18.7222C90.2772 19.4796 91.1397 19.8583 92.1706 19.8583ZM110.938 6.41481C112.18 6.41481 113.263 6.66727 114.189 7.17219C115.136 7.67711 115.861 8.33982 116.366 9.16032V6.66727H121.763V24.2448C121.763 25.8648 121.437 27.3269 120.784 28.6313C120.153 29.9567 119.175 31.0086 117.85 31.7871C116.545 32.5655 114.915 32.9547 112.958 32.9547C110.349 32.9547 108.235 32.3341 106.615 31.0928C104.995 29.8726 104.069 28.2105 103.838 26.1067H109.171C109.34 26.7799 109.739 27.3059 110.37 27.6846C111.002 28.0843 111.78 28.2842 112.706 28.2842C113.821 28.2842 114.704 27.9581 115.357 27.3059C116.03 26.6747 116.366 25.6544 116.366 24.2448V21.7518C115.84 22.5723 115.115 23.2455 114.189 23.7714C113.263 24.2764 112.18 24.5288 110.938 24.5288C109.487 24.5288 108.172 24.1607 106.994 23.4243C105.816 22.6669 104.879 21.6045 104.185 20.237C103.512 18.8485 103.175 17.2496 103.175 15.4403C103.175 13.631 103.512 12.0426 104.185 10.6751C104.879 9.30759 105.816 8.25567 106.994 7.51933C108.172 6.78298 109.487 6.41481 110.938 6.41481ZM116.366 15.4718C116.366 14.1254 115.988 13.0629 115.23 12.2845C114.494 11.5061 113.589 11.1169 112.516 11.1169C111.443 11.1169 110.528 11.5061 109.771 12.2845C109.034 13.0419 108.666 14.0938 108.666 15.4403C108.666 16.7867 109.034 17.8597 109.771 18.6591C110.528 19.4375 111.443 19.8268 112.516 19.8268C113.589 19.8268 114.494 19.4375 115.23 18.6591C115.988 17.8807 116.366 16.8183 116.366 15.4718Z" fill="url(#paint0_linear_839_1675)"/>
<defs>
<linearGradient id="paint0_linear_839_1675" x1="62.0757" y1="-6.72363" x2="32.0124" y2="32.5456" gradientUnits="userSpaceOnUse">
<stop stop-color="#F85E9F"/>
<stop offset="1" stop-color="#5D50C6"/>
</linearGradient>
</defs>
</svg>
