<svg width="25" height="25" viewBox="0 0 25 25" fill="none" xmlns="http://www.w3.org/2000/svg">
<path fill-rule="evenodd" clip-rule="evenodd" d="M11.358 4.22454C10.6968 4.22454 10.1344 4.68392 9.97658 5.30309H15.2848C15.127 4.68392 14.5646 4.22454 13.9035 4.22454H11.358ZM16.7846 5.30308H18.7382C20.8101 5.30308 22.4974 7.01077 22.4974 9.10794C22.4974 9.10794 22.4382 9.99574 22.4185 11.2321C22.4165 11.3299 22.3691 11.4258 22.2912 11.4838C21.8166 11.8343 21.3824 12.1239 21.343 12.1438C19.7051 13.2423 17.8018 14.0153 15.7742 14.3998C15.642 14.4257 15.5118 14.3569 15.4447 14.239C14.8763 13.2543 13.8147 12.6132 12.6307 12.6132C11.4546 12.6132 10.3831 13.2473 9.798 14.233C9.72992 14.3489 9.60165 14.4158 9.47043 14.3908C7.4596 14.0053 5.55632 13.2333 3.92833 12.1538L2.98113 11.4947C2.9022 11.4448 2.85286 11.3549 2.85286 11.2551C2.82326 10.7457 2.77393 9.10794 2.77393 9.10794C2.77393 7.01077 4.46113 5.30308 6.53313 5.30308H8.47685C8.66432 3.85504 9.87792 2.72656 11.358 2.72656H13.9035C15.3835 2.72656 16.5971 3.85504 16.7846 5.30308ZM22.1619 13.3922L22.1224 13.4122C20.1294 14.7504 17.7318 15.6392 15.2158 16.0087C14.8606 16.0586 14.5053 15.8289 14.4067 15.4695C14.1897 14.6506 13.4891 14.1112 12.6504 14.1112H12.6406H12.6209C11.7822 14.1112 11.0816 14.6506 10.8646 15.4695C10.766 15.8289 10.4107 16.0586 10.0555 16.0087C7.53952 15.6392 5.14192 14.7504 3.14886 13.4122C3.139 13.4023 3.04033 13.3423 2.9614 13.3922C2.87259 13.4422 2.87259 13.562 2.87259 13.562L2.94166 18.6551C2.94166 20.7523 4.619 22.45 6.69099 22.45H18.5704C20.6425 22.45 22.3198 20.7523 22.3198 18.6551L22.3988 13.562C22.3988 13.562 22.3988 13.4422 22.3099 13.3922C22.2606 13.3623 22.2014 13.3723 22.1619 13.3922ZM13.3707 17.5766C13.3707 17.9961 13.0451 18.3255 12.6307 18.3255C12.2262 18.3255 11.8907 17.9961 11.8907 17.5766V16.2883C11.8907 15.8788 12.2262 15.5393 12.6307 15.5393C13.0451 15.5393 13.3707 15.8788 13.3707 16.2883V17.5766Z" fill="#F85E9F"/>
</svg>
