<svg width="17" height="20" viewBox="0 0 17 20" fill="none" xmlns="http://www.w3.org/2000/svg">
<path fill-rule="evenodd" clip-rule="evenodd" d="M0.231934 8.27896C0.231934 3.74265 4.02266 0.0761719 8.60789 0.0761719C13.2061 0.0761719 16.9969 3.74265 16.9969 8.27896C16.9969 10.5648 16.1655 12.6869 14.7972 14.4857C13.2877 16.4698 11.4272 18.1986 9.33282 19.5554C8.85355 19.869 8.42101 19.8927 7.89489 19.5554C5.78876 18.1986 3.9282 16.4698 2.43159 14.4857C1.06227 12.6869 0.231934 10.5648 0.231934 8.27896ZM5.84743 8.53437C5.84743 10.054 7.08751 11.2492 8.60789 11.2492C10.1294 11.2492 11.3814 10.054 11.3814 8.53437C11.3814 7.02652 10.1294 5.77312 8.60789 5.77312C7.08751 5.77312 5.84743 7.02652 5.84743 8.53437Z" fill="#FACD49"/>
</svg>
