<svg width="22" height="23" viewBox="0 0 22 23" fill="none" xmlns="http://www.w3.org/2000/svg">
<g clip-path="url(#clip0_839_1728)">
<path d="M11.0007 7.77734C10.3414 7.7907 9.70889 8.03724 9.21851 8.47204C8.72813 8.90684 8.41251 9.50093 8.32918 10.146C8.24585 10.7911 8.40036 11.4443 8.76454 11.9865C9.12872 12.5286 9.67832 12.9237 10.3132 13.0996V20.6592C10.3132 20.839 10.3856 21.0115 10.5145 21.1386C10.6435 21.2658 10.8183 21.3372 11.0007 21.3372C11.183 21.3372 11.3579 21.2658 11.4868 21.1386C11.6157 21.0115 11.6882 20.839 11.6882 20.6592V13.0996C12.323 12.9237 12.8726 12.5286 13.2368 11.9865C13.601 11.4443 13.7555 10.7911 13.6722 10.146C13.5888 9.50093 13.2732 8.90684 12.7828 8.47204C12.2925 8.03724 11.66 7.7907 11.0007 7.77734Z" fill="#F6CA49"/>
<path d="M15.9503 4.86121C15.811 4.76899 15.6424 4.73017 15.4761 4.75206C15.3098 4.77394 15.1574 4.85503 15.0475 4.98005C14.9377 5.10507 14.8779 5.26539 14.8796 5.43081C14.8813 5.59624 14.9442 5.75536 15.0566 5.8782C15.7265 6.451 16.2637 7.15911 16.632 7.95454C17.0002 8.74997 17.1907 9.61416 17.1907 10.4886C17.1907 11.363 17.0002 12.2271 16.632 13.0226C16.2637 13.818 15.7265 14.5261 15.0566 15.0989C14.9757 15.1525 14.9073 15.2223 14.8559 15.3039C14.8045 15.3855 14.7712 15.4769 14.7583 15.5721C14.7455 15.6673 14.7532 15.7641 14.7811 15.8561C14.8091 15.9481 14.8565 16.0332 14.9203 16.1058C14.9841 16.1784 15.0627 16.2368 15.1511 16.2771C15.2395 16.3175 15.3356 16.3388 15.433 16.3398C15.5304 16.3407 15.6269 16.3212 15.716 16.2826C15.8052 16.2441 15.8851 16.1872 15.9503 16.1159C16.7665 15.4158 17.4209 14.5512 17.8694 13.5805C18.3179 12.6097 18.5499 11.5553 18.5499 10.4886C18.5499 9.42179 18.3179 8.36743 17.8694 7.39665C17.4209 6.42588 16.7665 5.56128 15.9503 4.86121ZM4.81281 10.4886C4.81245 9.61438 5.00255 8.75033 5.37026 7.95491C5.73796 7.15949 6.27467 6.45127 6.94406 5.8782C7.05642 5.75536 7.11936 5.59624 7.12102 5.43081C7.12268 5.26539 7.06296 5.10507 6.95309 4.98005C6.84322 4.85503 6.6908 4.77394 6.52452 4.75206C6.35824 4.73017 6.18958 4.76899 6.05031 4.86121C5.2341 5.56128 4.57967 6.42588 4.13121 7.39665C3.68275 8.36743 3.45068 9.42179 3.45068 10.4886C3.45068 11.5553 3.68275 12.6097 4.13121 13.5805C4.57967 14.5512 5.2341 15.4158 6.05031 16.1159C6.18958 16.2081 6.35824 16.2469 6.52452 16.2251C6.6908 16.2032 6.84322 16.1221 6.95309 15.9971C7.06296 15.872 7.12268 15.7117 7.12102 15.5463C7.11936 15.3809 7.05642 15.2218 6.94406 15.0989C6.27467 14.5258 5.73796 13.8176 5.37026 13.0222C5.00255 12.2268 4.81245 11.3627 4.81281 10.4886Z" fill="#F6CA49"/>
<path d="M18.3917 2.45491C18.324 2.39481 18.245 2.34846 18.1591 2.31849C18.0732 2.28852 17.9822 2.27552 17.8912 2.28024C17.8003 2.28497 17.7111 2.30731 17.6289 2.34601C17.5467 2.3847 17.473 2.43899 17.4121 2.50576C17.3511 2.57254 17.3041 2.6505 17.2737 2.73519C17.2433 2.81988 17.2302 2.90965 17.2349 2.99936C17.2397 3.08908 17.2624 3.17698 17.3016 3.25806C17.3409 3.33914 17.3959 3.4118 17.4636 3.4719C18.4539 4.36145 19.245 5.44504 19.7863 6.65337C20.3276 7.8617 20.6072 9.16814 20.6072 10.4891C20.6072 11.8101 20.3276 13.1166 19.7863 14.3249C19.245 15.5332 18.4539 16.6168 17.4636 17.5064C17.3959 17.5665 17.3409 17.6391 17.3016 17.7202C17.2624 17.8013 17.2397 17.8892 17.2349 17.9789C17.2302 18.0686 17.2433 18.1584 17.2737 18.2431C17.3041 18.3278 17.3511 18.4057 17.4121 18.4725C17.473 18.5393 17.5467 18.5936 17.6289 18.6323C17.7111 18.671 17.8003 18.6933 17.8912 18.698C17.9822 18.7028 18.0732 18.6898 18.1591 18.6598C18.245 18.6298 18.324 18.5835 18.3917 18.5234C19.5227 17.5068 20.4261 16.2687 21.0443 14.8882C21.6625 13.5077 21.9817 12.0152 21.9817 10.5061C21.9817 8.99699 21.6625 7.50449 21.0443 6.124C20.4261 4.74351 19.5227 3.5054 18.3917 2.48881V2.45491ZM1.37613 10.4891C1.38063 9.16709 1.66413 7.86044 2.2086 6.65233C2.75306 5.44422 3.54657 4.36111 4.53863 3.4719C4.67538 3.35053 4.75764 3.18055 4.76731 2.99936C4.77698 2.81818 4.71327 2.64062 4.59019 2.50576C4.46711 2.3709 4.29475 2.28978 4.11102 2.28024C3.9273 2.27071 3.74725 2.33354 3.6105 2.45491C2.47954 3.4715 1.57611 4.70961 0.957952 6.0901C0.339792 7.47059 0.0205078 8.96309 0.0205078 10.4722C0.0205078 11.9813 0.339792 13.4738 0.957952 14.8543C1.57611 16.2348 2.47954 17.4729 3.6105 18.4895C3.67821 18.5496 3.75727 18.5959 3.84315 18.6259C3.92903 18.6559 4.02005 18.6689 4.11102 18.6641C4.202 18.6594 4.29113 18.6371 4.37335 18.5984C4.45557 18.5597 4.52925 18.5054 4.59019 18.4386C4.65113 18.3718 4.69814 18.2939 4.72853 18.2092C4.75892 18.1245 4.7721 18.0347 4.76731 17.945C4.76252 17.8553 4.73986 17.7674 4.70062 17.6863C4.66139 17.6052 4.60634 17.5326 4.53863 17.4725C3.55082 16.5871 2.75981 15.5095 2.2155 14.3075C1.67118 13.1056 1.38538 11.8055 1.37613 10.4891Z" fill="#F6CA49"/>
</g>
<defs>
<clipPath id="clip0_839_1728">
<rect width="22" height="21.6958" fill="white" transform="translate(0.000488281 0.962891)"/>
</clipPath>
</defs>
</svg>
