<svg width="89" height="97" viewBox="0 0 89 97" fill="none" xmlns="http://www.w3.org/2000/svg">
<rect opacity="0.08" width="88.7555" height="88.7555" rx="44.3778" fill="url(#paint0_linear_1427_1879)"/>
<g filter="url(#filter0_dddd_1427_1879)">
<path d="M30.7408 27.457C27.4864 27.457 24.5871 28.8179 22.3978 30.9481C20.2677 33.0782 18.9067 35.9776 18.9067 39.2911C18.9067 42.5455 20.2677 45.4448 22.3978 47.6341L42.5749 67.8112L62.752 47.6341C64.8821 45.504 66.243 42.6046 66.243 39.2911C66.243 36.0367 64.8821 33.1374 62.752 30.9481C60.6218 28.8179 57.7225 27.457 54.4089 27.457C51.1546 27.457 48.2552 28.8179 46.0659 30.9481C43.9358 33.0782 42.5749 35.9776 42.5749 39.2911C42.5749 36.0367 41.214 33.1374 39.0838 30.9481C36.9537 28.8179 34.0543 27.457 30.7408 27.457Z" fill="url(#paint1_linear_1427_1879)"/>
</g>
<defs>
<filter id="filter0_dddd_1427_1879" x="11.0174" y="25.4847" width="63.1149" height="70.9258" filterUnits="userSpaceOnUse" color-interpolation-filters="sRGB">
<feFlood flood-opacity="0" result="BackgroundImageFix"/>
<feColorMatrix in="SourceAlpha" type="matrix" values="0 0 0 0 0 0 0 0 0 0 0 0 0 0 0 0 0 0 127 0" result="hardAlpha"/>
<feOffset dy="0.986172"/>
<feGaussianBlur stdDeviation="1.47926"/>
<feColorMatrix type="matrix" values="0 0 0 0 0 0 0 0 0 0 0 0 0 0 0 0 0 0 0.1 0"/>
<feBlend mode="normal" in2="BackgroundImageFix" result="effect1_dropShadow_1427_1879"/>
<feColorMatrix in="SourceAlpha" type="matrix" values="0 0 0 0 0 0 0 0 0 0 0 0 0 0 0 0 0 0 127 0" result="hardAlpha"/>
<feOffset dy="4.93086"/>
<feGaussianBlur stdDeviation="2.46543"/>
<feColorMatrix type="matrix" values="0 0 0 0 0 0 0 0 0 0 0 0 0 0 0 0 0 0 0.09 0"/>
<feBlend mode="normal" in2="effect1_dropShadow_1427_1879" result="effect2_dropShadow_1427_1879"/>
<feColorMatrix in="SourceAlpha" type="matrix" values="0 0 0 0 0 0 0 0 0 0 0 0 0 0 0 0 0 0 127 0" result="hardAlpha"/>
<feOffset dy="11.8341"/>
<feGaussianBlur stdDeviation="3.4516"/>
<feColorMatrix type="matrix" values="0 0 0 0 0 0 0 0 0 0 0 0 0 0 0 0 0 0 0.05 0"/>
<feBlend mode="normal" in2="effect2_dropShadow_1427_1879" result="effect3_dropShadow_1427_1879"/>
<feColorMatrix in="SourceAlpha" type="matrix" values="0 0 0 0 0 0 0 0 0 0 0 0 0 0 0 0 0 0 127 0" result="hardAlpha"/>
<feOffset dy="20.7096"/>
<feGaussianBlur stdDeviation="3.94469"/>
<feColorMatrix type="matrix" values="0 0 0 0 0 0 0 0 0 0 0 0 0 0 0 0 0 0 0.01 0"/>
<feBlend mode="normal" in2="effect3_dropShadow_1427_1879" result="effect4_dropShadow_1427_1879"/>
<feBlend mode="normal" in="SourceGraphic" in2="effect4_dropShadow_1427_1879" result="shape"/>
</filter>
<linearGradient id="paint0_linear_1427_1879" x1="0" y1="0" x2="88.7555" y2="88.7555" gradientUnits="userSpaceOnUse">
<stop stop-color="#F85E9F"/>
<stop offset="1" stop-color="#F986B7"/>
</linearGradient>
<linearGradient id="paint1_linear_1427_1879" x1="42.5749" y1="27.457" x2="42.5749" y2="67.8112" gradientUnits="userSpaceOnUse">
<stop stop-color="#8954BC"/>
<stop offset="1" stop-color="#F85E9F"/>
</linearGradient>
</defs>
</svg>
