<svg width="19" height="16" viewBox="0 0 19 16" fill="none" xmlns="http://www.w3.org/2000/svg">
<path d="M12.8734 0.934349V0.931152H13.7058L14.0099 0.991893C14.2126 1.03133 14.3967 1.083 14.5621 1.14694C14.7275 1.21088 14.8876 1.28548 15.0423 1.37072C15.197 1.45596 15.3374 1.54282 15.4633 1.63126C15.5881 1.71865 15.7002 1.81136 15.7994 1.90939C15.8976 2.00849 16.0507 2.03407 16.2588 1.98612C16.4669 1.93816 16.691 1.87156 16.9311 1.78631C17.1712 1.70107 17.4086 1.60516 17.6433 1.49859C17.8781 1.39203 18.0211 1.32437 18.0723 1.29559C18.1225 1.26577 18.1492 1.24978 18.1524 1.24764L18.1556 1.24285L18.1716 1.23485L18.1876 1.22686L18.2036 1.21887L18.2196 1.21088L18.2228 1.20608L18.2276 1.20289L18.2324 1.19969L18.2356 1.19489L18.2516 1.1901L18.2676 1.1869L18.2644 1.21088L18.2596 1.23485L18.2516 1.25883L18.2436 1.28281L18.2356 1.29879L18.2276 1.31478L18.2196 1.33875C18.2143 1.35474 18.2089 1.37604 18.2036 1.40269C18.1982 1.42933 18.1476 1.53589 18.0515 1.72237C17.9555 1.90886 17.8354 2.09801 17.6914 2.28982C17.5473 2.48163 17.4182 2.62654 17.304 2.72459C17.1888 2.82369 17.1125 2.89295 17.0751 2.93238C17.0378 2.97287 16.9924 3.01016 16.9391 3.04427L16.859 3.09702L16.843 3.10502L16.827 3.11301L16.8238 3.1178L16.819 3.121L16.8142 3.1242L16.811 3.12899L16.795 3.13698L16.779 3.14498L16.7758 3.14977L16.771 3.15297L16.7662 3.15616L16.763 3.16096L16.7598 3.16576L16.755 3.16895L16.7502 3.17215L16.747 3.17694H16.827L17.2752 3.08104C17.574 3.0171 17.8594 2.93985 18.1315 2.84927L18.5637 2.70541L18.6117 2.68942L18.6357 2.68143L18.6518 2.67344L18.6678 2.66545L18.6838 2.65745L18.6998 2.64946L18.7318 2.64467L18.7638 2.64147V2.67344L18.7558 2.67664L18.7478 2.68143L18.7446 2.68623L18.7398 2.68942L18.735 2.69262L18.7318 2.69742L18.7286 2.70221L18.7238 2.70541L18.719 2.7086L18.7158 2.7134L18.7126 2.7182L18.7078 2.72139L18.6998 2.73738L18.6918 2.75336L18.687 2.75656C18.6848 2.75975 18.6171 2.85032 18.4837 3.02829C18.3503 3.20731 18.2783 3.29788 18.2676 3.30002C18.2569 3.30322 18.242 3.3192 18.2228 3.34798C18.2046 3.3778 18.0915 3.49663 17.8834 3.70443C17.6754 3.91222 17.4716 4.0971 17.272 4.25908C17.0714 4.42212 16.97 4.62245 16.9679 4.86009C16.9647 5.09666 16.9524 5.36414 16.9311 5.6625C16.9097 5.96088 16.8697 6.28322 16.811 6.62955C16.7523 6.97588 16.6616 7.3675 16.5389 7.80439C16.4162 8.24129 16.2668 8.66755 16.0907 9.08314C15.9147 9.49873 15.7306 9.87169 15.5385 10.202C15.3464 10.5324 15.1704 10.8121 15.0103 11.0412C14.8502 11.2703 14.6875 11.4861 14.5221 11.6886C14.3567 11.891 14.1476 12.1191 13.8947 12.3727C13.6407 12.6253 13.502 12.7638 13.4785 12.7883C13.454 12.8117 13.3494 12.8991 13.1648 13.0504C12.9812 13.2028 12.7838 13.3552 12.5725 13.5076C12.3623 13.6589 12.1692 13.7852 11.9931 13.8864C11.817 13.9876 11.6047 14.1033 11.356 14.2333C11.1085 14.3643 10.8406 14.4858 10.5525 14.5977C10.2644 14.7096 9.96028 14.8135 9.64015 14.9094C9.32002 15.0053 9.01057 15.0799 8.71178 15.1332C8.413 15.1865 8.07419 15.2318 7.69537 15.2691L7.12714 15.325V15.333H6.08673V15.325L5.95067 15.317C5.85998 15.3117 5.78528 15.3063 5.72658 15.301C5.6679 15.2957 5.44647 15.2664 5.06232 15.2131C4.67816 15.1598 4.37671 15.1065 4.15795 15.0533C3.93921 15 3.61374 14.8987 3.18156 14.7496C2.74939 14.6004 2.37964 14.4496 2.07232 14.2972C1.76607 14.1459 1.57399 14.05 1.49609 14.0095C1.41926 13.9701 1.33282 13.9211 1.23678 13.8624L1.09273 13.7745L1.08954 13.7697L1.08472 13.7665L1.07992 13.7633L1.07672 13.7585L1.06071 13.7505L1.04471 13.7426L1.04152 13.7378L1.0367 13.7346L1.0319 13.7314L1.0287 13.7266L1.02552 13.7218L1.0207 13.7186H1.0127V13.6866L1.0287 13.6898L1.04471 13.6946L1.11674 13.7026C1.16476 13.7079 1.29548 13.7159 1.50889 13.7266C1.72232 13.7372 1.94907 13.7372 2.18917 13.7266C2.42926 13.7159 2.6747 13.6919 2.92546 13.6546C3.17623 13.6174 3.47235 13.5534 3.81382 13.4628C4.1553 13.3722 4.46902 13.2646 4.75501 13.1399C5.03992 13.0142 5.24266 12.9204 5.36325 12.8586C5.48276 12.7979 5.66523 12.6849 5.91066 12.5198L6.2788 12.272L6.282 12.2672L6.28681 12.264L6.29162 12.2608L6.29481 12.256L6.29801 12.2512L6.30281 12.248L6.30763 12.2448L6.31082 12.24L6.32682 12.2352L6.34283 12.232L6.34603 12.2161L6.35083 12.2001L6.35565 12.1969L6.35883 12.1921L6.23078 12.1841C6.14542 12.1788 6.06272 12.1734 5.98268 12.1681C5.90265 12.1628 5.77727 12.1388 5.60653 12.0962C5.43581 12.0535 5.25174 11.9896 5.05431 11.9044C4.85691 11.8191 4.66483 11.7179 4.47808 11.6007C4.29135 11.4834 4.15635 11.3859 4.07312 11.3081C3.99096 11.2314 3.88424 11.1227 3.75299 10.9821C3.62281 10.8404 3.50969 10.6949 3.41366 10.5457C3.31762 10.3965 3.22585 10.2244 3.13836 10.0294L3.00549 9.73849L2.99749 9.71452L2.98949 9.69054L2.98468 9.67456L2.98148 9.65857L3.00549 9.66177L3.0295 9.66656L3.20557 9.69054C3.32296 9.70652 3.50704 9.71185 3.75779 9.70652C4.00857 9.7012 4.18196 9.69054 4.278 9.67456C4.37404 9.65857 4.43274 9.64791 4.45407 9.64259L4.48609 9.63459L4.5261 9.6266L4.56612 9.61861L4.56932 9.61382L4.57412 9.61062L4.57894 9.60742L4.58212 9.60263L4.55011 9.59463L4.5181 9.58664L4.48609 9.57865L4.45407 9.57066L4.42206 9.56267C4.40072 9.55734 4.36338 9.54668 4.31001 9.5307C4.25667 9.51471 4.11261 9.4561 3.87784 9.35487C3.64309 9.25364 3.45635 9.15507 3.31762 9.05916C3.17855 8.96298 3.04594 8.85779 2.92066 8.74427C2.79581 8.62918 2.6587 8.48106 2.50929 8.29991C2.35991 8.11876 2.22652 7.90829 2.10913 7.66853C1.99176 7.42876 1.90372 7.19966 1.84503 6.9812C1.78657 6.76403 1.748 6.542 1.7298 6.31786L1.70097 5.98219L1.71698 5.98538L1.73298 5.99018L1.74899 5.99817L1.765 6.00616L1.781 6.01415L1.79701 6.02215L2.04511 6.13404C2.21052 6.20864 2.41593 6.27257 2.66136 6.32585C2.9068 6.37912 3.05351 6.40844 3.10153 6.41376L3.17356 6.42175H3.31762L3.31443 6.41696L3.30961 6.41376L3.30481 6.41056L3.30161 6.40577L3.29843 6.40097L3.29361 6.39778L3.28881 6.39458L3.2856 6.38979L3.2696 6.38179L3.25359 6.3738L3.25041 6.36901L3.24559 6.36581L3.24079 6.36261L3.23759 6.35782L3.22158 6.34982L3.20557 6.34183L3.20239 6.33704C3.19919 6.3349 3.1533 6.3008 3.06472 6.23474C2.97721 6.1676 2.88544 6.08076 2.78941 5.97419C2.69337 5.86763 2.59733 5.75574 2.50129 5.63852C2.40508 5.52104 2.31938 5.39535 2.24519 5.26289C2.1705 5.1297 2.09153 4.96025 2.00829 4.75459C1.92613 4.54999 1.86371 4.3438 1.82102 4.136C1.77835 3.92821 1.75434 3.72308 1.74899 3.52061C1.74366 3.31813 1.74899 3.14498 1.765 3.00112C1.781 2.85726 1.81302 2.69475 1.86103 2.5136C1.90905 2.33245 1.97843 2.14064 2.06912 1.93816L2.20517 1.63446L2.21318 1.61048L2.22118 1.58651L2.226 1.58331L2.22918 1.57852L2.23238 1.57372L2.23719 1.57052L2.242 1.57372L2.24519 1.57852L2.24839 1.58331L2.25319 1.58651L2.25801 1.5897L2.26119 1.5945L2.2644 1.5993L2.2692 1.60249L2.2772 1.61848L2.2852 1.63446L2.29002 1.63766L2.29321 1.64245L2.50929 1.88222C2.65335 2.04206 2.82409 2.22056 3.0215 2.41769C3.21892 2.61482 3.32829 2.71712 3.34963 2.72459C3.37098 2.73311 3.39765 2.75761 3.42966 2.79812C3.46168 2.83755 3.56839 2.93186 3.74979 3.08104C3.93121 3.23022 4.16863 3.40339 4.46208 3.60053C4.75554 3.79766 5.081 3.99214 5.43847 4.18395C5.79595 4.37577 6.18011 4.54892 6.59093 4.70344C7.00176 4.85796 7.28988 4.95919 7.45527 5.00714C7.62068 5.0551 7.90345 5.11637 8.30361 5.19096C8.70377 5.26556 9.00524 5.31352 9.20797 5.33482C9.41073 5.35613 9.54945 5.36839 9.62414 5.37159L9.73619 5.37478L9.733 5.35081L9.72818 5.32683L9.69617 5.12703C9.67483 4.99383 9.66416 4.80734 9.66416 4.56758C9.66416 4.32781 9.68284 4.1067 9.72018 3.90423C9.75754 3.70176 9.81356 3.49663 9.88825 3.28883C9.96295 3.08104 10.036 2.91426 10.1075 2.78853C10.1801 2.66385 10.2751 2.52159 10.3924 2.36175C10.5098 2.2019 10.6619 2.03674 10.8486 1.86623C11.0354 1.69573 11.2488 1.54388 11.4889 1.41068C11.729 1.27748 11.9504 1.17624 12.1532 1.10698C12.3559 1.03772 12.5266 0.99242 12.6654 0.971113C12.8041 0.949806 12.8734 0.937546 12.8734 0.934349Z" fill="#F95F9F"/>
</svg>
