<svg width="210" height="32" viewBox="0 0 210 32" fill="none" xmlns="http://www.w3.org/2000/svg">
<path d="M22.6972 18.9611C24.4937 23.8284 29.9084 26.3198 34.7771 24.5275C39.643 22.7226 42.14 17.3135 40.3365 12.4448C38.5386 7.57055 33.1324 5.08327 28.2567 6.87979C23.3852 8.68328 20.8979 14.0896 22.6972 18.9611Z" fill="white"/>
<path d="M10.6727 25.0701C15.866 25.0701 20.0759 20.8601 20.0759 15.6669C20.0759 10.4736 15.866 6.26367 10.6727 6.26367C5.47948 6.26367 1.26953 10.4736 1.26953 15.6669C1.26953 20.8601 5.47948 25.0701 10.6727 25.0701Z" fill="white"/>
<path d="M12.2759 15.5674C12.2759 16.5256 11.4974 17.311 10.5392 17.311C9.57691 17.311 8.7998 16.527 8.7998 15.5674C8.7998 14.6107 9.57691 13.835 10.5392 13.835C11.4974 13.8364 12.2759 14.6107 12.2759 15.5674Z" fill="#191825" fill-opacity="0.37"/>
<path d="M33.2306 15.5674C33.2306 16.5256 32.4549 17.311 31.4967 17.311C30.5316 17.311 29.7573 16.527 29.7573 15.5674C29.7573 14.6107 30.5316 13.835 31.4967 13.835C32.4563 13.8364 33.2306 14.6107 33.2306 15.5674Z" fill="#191825" fill-opacity="0.37"/>
<path d="M5.37207 15.567C5.37207 18.4178 7.69084 20.7324 10.5416 20.7324C13.3854 20.7324 15.7028 18.4178 15.7028 15.567C15.7028 12.7232 13.384 10.4072 10.5416 10.4072C7.69223 10.41 5.37207 12.7246 5.37207 15.567ZM7.15327 15.567C7.15327 13.7022 8.67684 12.1856 10.5444 12.1856C12.4091 12.1856 13.9244 13.7064 13.9244 15.567C13.9244 17.4373 12.4091 18.9567 10.5444 18.9567C8.67684 18.9581 7.15327 17.4401 7.15327 15.567Z" fill="#191825" fill-opacity="0.37"/>
<path d="M26.3301 15.567C26.3301 18.4178 28.6461 20.7324 31.4954 20.7324C34.3406 20.7324 36.6552 18.4178 36.6552 15.567C36.6552 12.7232 34.3406 10.4072 31.4954 10.4072C28.6475 10.41 26.3301 12.7246 26.3301 15.567ZM28.1113 15.567C28.1113 13.7022 29.6307 12.1856 31.4996 12.1856C33.3644 12.1856 34.8782 13.7064 34.8782 15.567C34.8782 17.4373 33.3644 18.9567 31.4996 18.9567C29.6279 18.9581 28.1113 17.4401 28.1113 15.567Z" fill="#191825" fill-opacity="0.37"/>
<path d="M27.8945 5.88962C28.9835 5.48854 30.0977 5.29357 31.1979 5.26293C28.2009 3.9218 24.8084 3.24219 21.0496 3.24219C17.3201 3.24219 13.8774 3.93712 10.8818 5.21836C16.3034 5.3256 20.7112 9.57179 21.0914 14.9238C21.1833 13.6954 21.4841 12.481 22.0147 11.3307C23.1831 8.78634 25.2735 6.85612 27.8945 5.88962Z" fill="white"/>
<path d="M39.9243 9.48979C40.4145 7.39106 41.9701 5.29094 41.9701 5.29094L34.9888 5.28676C31.074 2.75909 26.3195 1.41797 21.0525 1.41797C15.5849 1.41797 10.648 2.79112 6.7555 5.33689L0.211426 5.34246C0.211426 5.34246 1.74891 7.41891 2.24609 9.50232C0.973207 11.2334 0.216996 13.36 0.216996 15.669C0.216996 21.4332 4.90884 26.1222 10.6758 26.1222C13.9722 26.1222 16.9121 24.5861 18.8298 22.1991L21.0567 25.5331L23.3002 22.1699C24.3099 23.4539 25.612 24.4956 27.1384 25.2017C29.6772 26.3687 32.5224 26.4843 35.1419 25.5164C40.5524 23.5152 43.3307 17.4836 41.3295 12.0801C40.9786 11.1289 40.4995 10.2641 39.9243 9.48979ZM21.0511 3.24374C24.8099 3.24374 28.2024 3.92335 31.1993 5.26587C30.0978 5.29511 28.985 5.49148 27.896 5.88978C25.275 6.85628 23.1846 8.7865 22.019 11.3267C21.4884 12.477 21.189 13.6914 21.0956 14.9197C20.7127 9.57056 16.3049 5.32436 10.8833 5.21434C13.8775 3.93728 17.3188 3.24374 21.0511 3.24374ZM17.5862 20.3399C16.0849 22.5543 13.5447 24.0138 10.673 24.0138C6.06892 24.0138 2.32269 20.2647 2.32269 15.6704C2.32269 11.0635 6.07032 7.32142 10.673 7.32142C15.2758 7.32142 19.022 11.0635 19.022 15.6704C19.022 15.9517 18.9677 16.2163 18.9384 16.4879C18.7992 17.8986 18.3452 19.2203 17.5862 20.3399ZM34.4108 23.5375C32.319 24.3062 30.0504 24.2213 28.0241 23.2868C26.5869 22.6211 25.4101 21.578 24.562 20.2828C24.2166 19.7592 23.913 19.2035 23.6888 18.595C23.4339 17.907 23.3072 17.1981 23.2389 16.4837C23.0997 15.0353 23.31 13.5703 23.9339 12.2124C24.8697 10.1861 26.5353 8.64444 28.6271 7.87013C32.9471 6.27693 37.756 8.49265 39.3519 12.8113C40.9465 17.1299 38.7294 21.9387 34.4108 23.5375Z" fill="#191825" fill-opacity="0.37"/>
<path d="M54.3041 2.94462L51.2431 4.00164C51.2431 4.00164 51.2431 7.6671 51.2431 7.99577C50.9228 7.99577 47.8506 7.99577 47.8506 7.99577V10.6738C47.8506 10.6738 50.8281 10.6738 51.1512 10.6738C51.1512 11.022 51.1512 19.2721 51.1512 19.2721C51.1512 23.3581 52.5424 25.0349 55.9642 25.0349C56.8318 25.0349 57.6604 24.9276 58.4918 24.7006L58.6269 24.6672L58.5893 21.8903L58.3554 21.9794C57.6827 22.212 57.1563 22.3262 56.7496 22.3262C55.1425 22.3262 54.5465 21.4223 54.5465 18.9824C54.5465 18.9824 54.5465 11.0206 54.5465 10.678C54.8723 10.678 58.4612 10.678 58.4612 10.678V7.99577C58.4612 7.99577 54.8737 7.99577 54.5465 7.99577C54.5465 7.66432 54.5465 2.86523 54.5465 2.86523L54.3041 2.94462Z" fill="#191825" fill-opacity="0.37"/>
<path d="M64.8883 10.709C64.8883 9.76621 64.8883 7.99614 64.8883 7.99614H61.7827V24.74H65.178V16.3353C65.178 12.8119 66.6584 10.8706 69.3406 10.8706C69.7292 10.8706 70.1066 10.9291 70.5662 11.0586L70.7862 11.1213L70.8976 7.81649L69.4367 7.70508C67.4689 7.70369 65.8799 8.76628 64.8883 10.709Z" fill="#191825" fill-opacity="0.37"/>
<path d="M76.9497 7.99444H73.7354V24.7397H77.1307V7.99444H76.9497ZM73.4067 3.08813C73.4067 4.20225 74.3147 5.10608 75.4261 5.10608C76.5402 5.10608 77.4454 4.20225 77.4454 3.08813C77.4454 1.9754 76.5402 1.06739 75.4261 1.06739C74.3147 1.0646 73.4067 1.9754 73.4067 3.08813Z" fill="#191825" fill-opacity="0.37"/>
<path d="M89.1213 7.60156C86.7914 7.60156 84.8319 8.70454 83.5256 10.7114C83.5256 9.90919 83.5256 7.9915 83.5256 7.9915H80.4214V31.5566H83.8195C83.8195 31.5566 83.8195 23.3274 83.8195 22.4222C85.045 24.0892 86.8025 25.0055 88.9904 25.0055C93.2825 25.0055 96.0553 21.4835 96.0553 16.0452C96.0553 10.9955 93.2672 7.60156 89.1213 7.60156ZM88.1729 22.2592C85.4865 22.2592 83.8181 19.9627 83.8181 16.2736C83.8181 12.7126 85.5784 10.4119 88.3024 10.4119C90.9276 10.4119 92.4971 12.5928 92.4971 16.2388C92.4985 19.9502 90.8398 22.2592 88.1729 22.2592Z" fill="#191825" fill-opacity="0.37"/>
<path d="M105.979 7.60254C103.903 7.60254 102.084 7.99527 100.415 8.79743L100.312 8.84757L100.349 11.7457L100.616 11.5953C102.21 10.704 103.72 10.2486 105.095 10.2486C107.554 10.2486 108.966 11.6579 108.966 14.1215C108.966 14.1215 108.966 14.1926 108.966 14.265C108.667 14.265 107.023 14.265 107.023 14.265C101.433 14.265 98.3584 16.2899 98.3584 19.9609C98.3584 22.9092 100.578 24.9703 103.756 24.9703C106.095 24.9703 107.904 24.0512 109.193 22.3215C109.193 22.9941 109.193 24.7391 109.193 24.7391H112.261V14.6062C112.26 9.96169 110.147 7.60254 105.979 7.60254ZM108.961 17.6714C108.961 20.5556 107.225 22.4218 104.54 22.4218C102.896 22.4218 101.748 21.3411 101.748 19.7952C101.748 17.7633 103.691 16.6478 107.217 16.6478C107.217 16.6478 108.67 16.6478 108.963 16.6478C108.961 16.9082 108.961 17.6714 108.961 17.6714Z" fill="#191825" fill-opacity="0.37"/>
<path d="M126.68 0C126.68 0 126.68 9.33495 126.68 10.268C125.428 8.52721 123.686 7.60528 121.448 7.60528C117.294 7.60528 114.503 11.0256 114.503 16.1088C114.503 21.3452 117.334 25.0023 121.38 25.0023C123.777 25.0023 125.646 23.9411 126.941 21.8786C126.941 22.7128 126.941 24.7419 126.941 24.7419H130.08V0H126.68ZM122.26 22.1919C119.672 22.1919 118.065 19.9358 118.065 16.3038C118.065 12.6676 119.686 10.3168 122.199 10.3168C125.004 10.3168 126.677 12.5534 126.677 16.3038C126.68 19.8871 124.951 22.1919 122.26 22.1919Z" fill="#191825" fill-opacity="0.37"/>
<path d="M145.252 7.99512L140.437 17.6643L135.986 7.99512H132.161L140.366 24.7404L148.794 7.99512H145.252Z" fill="#191825" fill-opacity="0.37"/>
<path d="M153.737 7.99542H150.522V24.7407H153.921V7.99542H153.737ZM150.197 3.0891C150.197 4.20323 151.104 5.10706 152.217 5.10706C153.335 5.10706 154.236 4.20323 154.236 3.0891C154.236 1.97638 153.332 1.06837 152.217 1.06837C151.105 1.06558 150.197 1.97638 150.197 3.0891Z" fill="#191825" fill-opacity="0.37"/>
<path d="M157.903 12.289C157.903 14.644 159.521 15.8849 162.51 17.3472C164.394 18.2733 165.378 18.8192 165.378 20.1241C165.378 21.4624 164.17 22.3273 162.292 22.3273C160.965 22.3273 159.492 21.9541 158.032 21.2368L157.784 21.1143L157.674 24.0667L157.787 24.1085C159.183 24.6642 160.649 24.9357 162.164 24.9357C166.317 24.9357 168.998 22.9568 168.998 19.8943C168.998 17.3416 167.3 16.045 164.358 14.6719C162.203 13.6594 161.299 13.0703 161.299 11.9966C161.299 10.9799 162.305 10.317 163.859 10.317C165.263 10.317 166.633 10.629 167.93 11.2473L168.175 11.3601L168.323 8.47178L168.187 8.43279C166.781 8.01499 165.392 7.8047 164.055 7.8047C160.376 7.79913 157.903 9.60401 157.903 12.289Z" fill="#191825" fill-opacity="0.37"/>
<path d="M179.592 7.60254C174.49 7.60254 171.321 10.963 171.321 16.3665C171.321 21.7728 174.492 25.1277 179.592 25.1277C184.719 25.1277 187.901 21.7714 187.901 16.3665C187.901 10.9644 184.716 7.60254 179.592 7.60254ZM179.622 22.3577C176.801 22.3577 174.907 19.9373 174.907 16.3345C174.907 12.7122 176.801 10.2834 179.622 10.2834C182.488 10.2834 184.338 12.6607 184.338 16.3345C184.338 19.9944 182.49 22.3577 179.622 22.3577Z" fill="#191825" fill-opacity="0.37"/>
<path d="M194.165 10.709C194.165 9.76621 194.165 7.99614 194.165 7.99614H191.059V24.74H194.454V16.3353C194.454 12.8119 195.926 10.8706 198.613 10.8706C198.999 10.8706 199.373 10.9291 199.824 11.0586L200.054 11.1213L200.16 7.81649L198.705 7.70508C196.745 7.70369 195.159 8.76628 194.165 10.709Z" fill="#191825" fill-opacity="0.37"/>
<path d="M208.26 7.25467C208.817 7.8187 209.109 8.56794 209.109 9.37429C209.109 10.2168 208.794 10.9717 208.215 11.5273C207.611 12.1011 206.861 12.4089 206.079 12.4089C205.261 12.4089 204.509 12.0872 203.924 11.4828C203.366 10.9034 203.05 10.1625 203.05 9.3715C203.05 8.56516 203.371 7.78388 203.973 7.19061C204.537 6.63773 205.263 6.33691 206.079 6.33691C206.916 6.33831 207.678 6.65583 208.26 7.25467ZM204.349 7.58752C203.859 8.07773 203.597 8.7086 203.597 9.37429C203.597 10.0233 203.839 10.6207 204.307 11.097C204.777 11.5872 205.399 11.8518 206.066 11.8518C206.715 11.8518 207.339 11.6025 207.821 11.1346C208.295 10.6792 208.555 10.0553 208.555 9.3729C208.555 8.70582 208.313 8.10001 207.853 7.63626C207.371 7.14604 206.76 6.8884 206.079 6.8884C205.408 6.8884 204.818 7.12794 204.349 7.58752ZM206.135 7.64461C207.084 7.64461 207.572 7.9886 207.572 8.61112C207.572 9.04005 207.317 9.3729 206.864 9.50938L207.611 10.9703H206.6L205.977 9.65143H205.714V10.9703H204.798V7.64322L206.135 7.64461ZM205.707 9.10969H206.026C206.434 9.10969 206.63 8.96624 206.63 8.68075C206.63 8.35487 206.424 8.22117 205.977 8.22117H205.707V9.10969Z" fill="#191825" fill-opacity="0.37"/>
</svg>
