<svg width="113" height="32" viewBox="0 0 113 32" fill="none" xmlns="http://www.w3.org/2000/svg">
<path d="M54.3085 24.6904H50.8422C50.8202 24.6904 50.8202 24.6904 50.8093 24.6794L47.8255 21.0375L44.8418 24.6794C44.8309 24.6904 44.8199 24.6904 44.8089 24.6904H42.0336C42.0117 24.6904 42.0007 24.6794 41.9897 24.6684C41.9897 24.6575 41.9897 24.6355 42.0007 24.6246L46.3995 19.2275L42.0556 13.8854C42.0446 13.8634 42.0446 13.8525 42.0446 13.8305C42.0556 13.8196 42.0665 13.8086 42.0775 13.8086H45.5439C45.5548 13.8086 45.5658 13.8196 45.5768 13.8305L48.1985 17.0775L50.8641 13.8305C50.8751 13.8196 50.886 13.8086 50.897 13.8086H53.7162C53.7272 13.8086 53.7491 13.8196 53.7601 13.8305C53.771 13.8525 53.7601 13.8634 53.7491 13.8854L49.6355 18.8326L54.3524 24.6246C54.3634 24.6355 54.3634 24.6575 54.3634 24.6684C54.3415 24.6904 54.3305 24.6904 54.3085 24.6904Z" fill="#191825" fill-opacity="0.37"/>
<path d="M73.0552 15.7168C71.5195 15.7168 70.4774 16.6493 70.1702 18.2618H75.3917V18.1521C75.3917 16.8687 74.4374 15.7168 73.0552 15.7168ZM78.0792 19.9292C78.0683 19.9401 78.0573 19.9511 78.0463 19.9511H70.1154C70.2799 21.794 71.4756 22.8471 73.4172 22.8471C74.6129 22.8471 75.8853 22.4412 77.6734 21.4868C77.7063 21.4649 77.7392 21.4978 77.7392 21.5307V23.9659C77.7392 23.9879 77.7282 23.9989 77.7172 23.9989C76.0499 24.7009 74.3715 25.1836 73.0552 25.1836C69.6437 25.1836 67.1646 22.6935 67.1646 19.271C67.1646 15.8485 69.6437 13.3584 73.0552 13.3584C76.1705 13.3584 78.167 15.4536 78.167 18.3386C78.167 18.8103 78.0902 19.8962 78.0792 19.9292Z" fill="#191825" fill-opacity="0.37"/>
<path d="M94.1826 11.5495C93.2063 11.5495 92.4165 10.7707 92.4165 9.81636C92.4165 8.8291 93.2063 8.02832 94.1826 8.02832C95.1589 8.02832 95.9487 8.8291 95.9487 9.81636C95.9487 10.7707 95.1589 11.5495 94.1826 11.5495ZM92.7566 24.6911C92.7236 24.6911 92.7127 24.6801 92.7127 24.6472V13.8422C92.7127 13.8202 92.7237 13.7983 92.7456 13.7983H95.6086C95.6306 13.7983 95.6416 13.8202 95.6416 13.8422V24.6472C95.6416 24.6801 95.6196 24.6911 95.5977 24.6911H92.7566Z" fill="#191825" fill-opacity="0.37"/>
<path d="M59.5518 23.0664C59.0362 23.0664 58.5097 22.9897 57.8954 22.8361L57.9064 15.9033C58.6194 15.673 59.2337 15.5742 59.848 15.5742C61.8335 15.5742 63.1608 17.0332 63.1608 19.2161C63.1608 21.5526 61.7457 23.0664 59.5518 23.0664ZM60.3306 13.3584C59.5189 13.3584 58.7072 13.501 57.8515 13.7972H54.9994C54.9775 13.7972 54.9556 13.8191 54.9556 13.8411V31.5569C55.8112 31.4362 56.8643 31.1291 57.8954 30.4051V25.019C58.5975 25.1177 59.1788 25.1836 59.7383 25.1836C63.6434 25.1836 66.1664 22.8471 66.1664 19.2271C66.1664 15.7717 63.7641 13.3584 60.3306 13.3584Z" fill="#191825" fill-opacity="0.37"/>
<path d="M87.5459 22.1676C86.6574 22.6393 85.8566 22.8587 85.1107 22.8587C83.3446 22.8587 82.2806 21.6081 82.2806 19.513C82.2806 17.0997 83.6298 15.531 85.725 15.531C86.3064 15.531 86.8658 15.6736 87.5459 15.9808V22.1676ZM87.5459 8.08269V13.732C86.7122 13.4907 85.9773 13.381 85.2314 13.381C81.8308 13.381 79.2749 15.9369 79.2749 19.3374C79.2749 22.7161 81.5346 25.1732 84.65 25.1732C85.725 25.1732 86.7342 24.899 87.9189 24.2957V25.272C88.6977 25.1184 89.5972 24.8112 90.4858 24.175V6.91992C89.6192 7.04059 88.588 7.33676 87.5459 8.08269Z" fill="#191825" fill-opacity="0.37"/>
<path d="M105.569 22.1455C104.703 22.6391 103.968 22.8805 103.31 22.8805C101.412 22.8805 100.282 21.63 100.282 19.5348C100.282 17.1544 101.62 15.5528 103.606 15.5528C104.132 15.5528 104.78 15.7612 105.569 16.1781V22.1455ZM108.509 13.6661C108.509 13.6002 108.454 13.5454 108.389 13.5454H106.074C106.008 13.5454 105.942 13.6002 105.942 13.6661V14.061H105.887C104.823 13.5893 103.902 13.3809 103.013 13.3809C99.8104 13.3809 97.2983 16.0355 97.2983 19.436C97.2983 22.8695 99.5471 25.1731 102.893 25.1731C103.781 25.1731 104.933 25.1073 106.008 23.8787V25.2718C106.765 25.1073 107.665 24.7892 108.509 24.1749V13.6661Z" fill="#191825" fill-opacity="0.37"/>
<path d="M34.1135 21.9916H41.2985C41.1888 22.7923 40.9146 23.7357 40.3003 24.6901H32.8301C31.9196 24.6901 31.1627 23.9771 31.0749 23.0885C31.0749 23.0775 31.064 23.0666 31.064 23.0446V8.87199C31.064 8.86102 31.0749 8.85005 31.0749 8.83908C31.1627 7.93958 31.9196 7.22656 32.8301 7.22656H41.2876C41.1779 8.02734 40.9036 8.99266 40.2784 9.94701H34.1135V13.8083H40.2235C40.2455 13.8083 40.2674 13.8302 40.2674 13.8522V16.5287C40.2674 16.5507 40.2455 16.5726 40.2235 16.5726H34.1135V21.9916Z" fill="#191825" fill-opacity="0.37"/>
<path d="M25.1187 24.9221C24.4055 24.9221 23.9666 24.3625 23.9666 23.6822C23.9666 22.9579 24.4713 22.4422 25.1187 22.4422C25.7551 22.4422 26.2599 22.947 26.2599 23.6822C26.2599 24.4173 25.7551 24.9221 25.1187 24.9221ZM25.1187 22.3105C24.3945 22.3105 23.769 22.8592 23.769 23.6822C23.769 24.4612 24.3287 25.0538 25.1187 25.0538C25.8319 25.0538 26.4574 24.5051 26.4574 23.6822C26.4574 22.8592 25.8429 22.3105 25.1187 22.3105Z" fill="#191825" fill-opacity="0.37"/>
<path d="M24.8002 23.5716V23.0669H25.1404C25.316 23.0669 25.5135 23.0888 25.5135 23.2973C25.5135 23.5497 25.3269 23.5607 25.1184 23.5607C25.1075 23.5716 24.8002 23.5716 24.8002 23.5716ZM25.7549 23.3302C25.7549 23.001 25.5574 22.8584 25.1623 22.8584H24.5479V24.4824H24.8112V23.7911H25.0636L25.4805 24.4824H25.7878L25.3379 23.7691C25.5793 23.7472 25.7549 23.6265 25.7549 23.3302Z" fill="#191825" fill-opacity="0.37"/>
<path d="M110.878 15.5976C110.165 15.5976 109.726 15.038 109.726 14.3577C109.726 13.6335 110.231 13.1178 110.878 13.1178C111.515 13.1178 112.02 13.6225 112.02 14.3577C112.02 15.0929 111.515 15.5976 110.878 15.5976ZM110.878 12.9971C110.154 12.9971 109.529 13.5457 109.529 14.3687C109.529 15.1478 110.088 15.7403 110.878 15.7403C111.592 15.7403 112.217 15.1916 112.217 14.3687C112.217 13.5347 111.592 12.9971 110.878 12.9971Z" fill="#191825" fill-opacity="0.37"/>
<path d="M110.549 14.2482V13.7544H110.889C111.065 13.7544 111.262 13.7763 111.262 13.9848C111.262 14.2372 111.076 14.2482 110.867 14.2482H110.549ZM111.515 14.0177C111.515 13.6885 111.317 13.5459 110.922 13.5459H110.308V15.1699H110.571V14.4786H110.823L111.24 15.1699H111.548L111.098 14.4566C111.328 14.4347 111.515 14.314 111.515 14.0177Z" fill="#191825" fill-opacity="0.37"/>
<path d="M15.8491 9.93654L15.3335 8.46662L10.9018 2.55404L11.6916 2.35659L19.3154 8.94928L23.802 7.66585C24.3285 7.53421 24.9318 7.5013 25.3816 7.5013C23.9775 4.46274 21.3887 1.96168 17.9881 0.755035C11.2638 -1.64729 3.85936 1.87393 1.468 8.60923C0.722074 10.6934 0.557531 12.8435 0.864678 14.8838L11.6039 11.1542L15.8491 9.93654Z" fill="#191825" fill-opacity="0.37"/>
<path d="M25.8645 8.66406C25.4696 8.91636 24.8882 9.25642 24.3178 9.4429L19.8203 10.7263L16.8256 20.3576L16.0468 20.6099L16.683 13.2603L16.332 11.7355L12.1197 12.9422L0.974609 15.542C1.86314 19.8201 4.89074 23.5607 9.31146 25.1293C16.0468 27.5317 23.4402 24.0104 25.8426 17.2752C26.8737 14.3902 26.8079 11.3626 25.8645 8.66406Z" fill="#191825" fill-opacity="0.37"/>
<path d="M16.3211 11.7247L16.6721 13.2494L16.0358 20.599L16.8147 20.3467L19.8094 10.7155L24.3069 9.43203C24.8773 9.24554 25.4587 8.91646 25.8536 8.65319C25.711 8.25829 25.5574 7.87435 25.3819 7.49042C24.9212 7.49042 24.3288 7.51236 23.8023 7.65496L19.3157 8.9384L11.6919 2.3457L10.9021 2.54315L15.3228 8.45574L15.8384 9.92566L11.5932 11.1433L0.854004 14.8729C0.886913 15.0923 0.930791 15.3227 0.974669 15.5421L12.1088 12.9203L16.3211 11.7247Z" fill="white"/>
</svg>
