<svg width="172" height="32" viewBox="0 0 172 32" fill="none" xmlns="http://www.w3.org/2000/svg">
<path d="M98.6303 30.7099L111.751 1.01779C111.958 0.567226 111.715 0.179743 111.21 0.179743H102.019C101.749 0.195027 101.489 0.281498 101.264 0.430319C101.039 0.579141 100.858 0.784979 100.739 1.0268L87.7808 30.7099C87.5915 31.1694 87.8348 31.5479 88.3305 31.5479H97.3507C97.8553 31.5479 98.4321 31.1694 98.6303 30.7099ZM145.678 22.7169L166.043 0.188754H142.227L136.838 8.86659H146.183L125.484 31.5569H150.688L160.078 22.7169H145.678ZM58.5212 0.179743H42.7515C42.284 0.206834 41.832 0.35694 41.4411 0.614869C41.0503 0.872797 40.7345 1.2294 40.5258 1.64858L28.1173 30.0881C27.7568 30.8991 28.1984 31.5569 29.0815 31.5569H36.8942C37.7773 31.5569 38.7866 30.8991 39.129 30.0971L42.6704 22.032H46.338C47.4824 21.9599 47.9691 22.3835 47.3383 23.7081L44.6169 30.0881C44.2744 30.8991 44.707 31.5569 45.5901 31.5569H53.4028C53.8721 31.5323 54.3265 31.3833 54.7192 31.1252C55.1119 30.8671 55.4289 30.5091 55.6376 30.0881L59.1881 21.8788C60.3055 19.2115 58.6924 17.1479 56.3495 17.0398C58.4221 16.2919 60.3325 14.2283 61.1886 12.3539L63.0269 8.02854C65.2436 3.00026 63.6667 0.116664 58.5212 0.188754M53.9255 9.15495L51.9791 13.4353C51.5285 14.4626 50.8797 14.5437 50.2309 14.5166H45.8424L48.7801 7.84832H52.9883C54.0156 7.9114 54.2769 8.28086 53.9255 9.15495ZM89.2136 0.170731H72.5067C72.1721 0.188169 71.8481 0.294129 71.5679 0.477783C71.2877 0.661437 71.0612 0.9162 70.9117 1.21604L58.1247 30.5026C57.8814 31.0793 58.1788 31.5389 58.8096 31.5389H76.6969C82.365 31.4578 85.6181 30.2052 88.2043 24.2037L90.0426 20.2027C91.4844 16.7785 90.0696 15.2916 87.3662 14.8591C89.6191 14.1652 91.3132 12.0476 92.0431 10.1822L93.539 7.01027C95.3773 2.77498 93.8453 0.116664 89.2045 0.170731M81.0133 19.8153L79.8779 22.0951C79.3102 23.6811 78.319 24.1136 76.9222 24.1316H71.6957L74.2008 18.2293H79.4273C80.9052 18.3374 81.4819 18.6979 81.0133 19.8153ZM84.0141 9.30814L83.2301 11.1104L83.1129 11.3447C82.9828 11.7206 82.7319 12.0429 82.3993 12.2614C82.0668 12.4798 81.6714 12.582 81.2746 12.5522H76.742L78.8146 7.77623H83.4373C84.2664 7.83029 84.4015 8.37097 84.0141 9.30814ZM114.643 0.179743L110.759 8.86659H116.301C116.68 8.86659 116.86 9.13693 116.707 9.48836L107.02 30.9351C106.858 31.2776 107.047 31.5569 107.425 31.5569H117.293C117.671 31.5569 118.104 31.2776 118.257 30.9261L127.556 9.48836C127.646 9.30804 127.781 9.15462 127.949 9.04379C128.117 8.93296 128.311 8.8687 128.512 8.85758H134.198L139.55 0.179743H114.643ZM32.7761 10.8671L34.0016 8.19074C36.4707 2.5497 34.8397 0.125675 29.9916 0.188754H18.322C13.519 0.125675 9.51805 2.82905 7.30128 7.85733L3.69678 18.04H0.290527L6.80566 26.835L17.5741 18.04H14.8347L17.9976 10.6959C18.5113 9.48836 19.3944 8.91164 20.3406 8.86659H22.1789C22.6114 8.88461 22.9088 9.01978 23.08 9.20902L28.7931 4.40602L32.7761 10.8671Z" fill="#191825" fill-opacity="0.37"/>
<path d="M6.56221 29.422L1.76822 23.3484L1.51591 23.8891C-0.709874 28.9534 -0.340412 31.4766 4.46258 31.5487H15.979C20.7459 31.4766 24.9181 28.9534 27.1529 23.8891L30.5772 16.0403H33.641L28.4145 7.23633L17.7362 16.0403H20.6648L18.5021 21.0416C17.9795 22.1049 17.1865 22.6816 16.3394 22.7177H14.8075L6.56221 29.422Z" fill="#191825" fill-opacity="0.37"/>
<path d="M169.838 0.000119929C170.261 0.000119929 170.622 0.153358 170.919 0.45082C171.217 0.748282 171.37 1.10884 171.37 1.5325C171.37 1.94714 171.217 2.3077 170.919 2.61418C170.622 2.92066 170.261 3.06488 169.838 3.06488C169.636 3.06798 169.436 3.02957 169.25 2.95203C169.064 2.87449 168.896 2.75949 168.756 2.61418C168.458 2.3077 168.305 1.94714 168.305 1.5325C168.305 1.11786 168.458 0.739268 168.756 0.45082C168.896 0.305938 169.064 0.19122 169.25 0.113715C169.436 0.0362098 169.636 -0.00244676 169.838 0.000119929ZM169.838 2.77643C170.003 2.78017 170.167 2.75012 170.321 2.68813C170.474 2.62613 170.614 2.53349 170.73 2.41587C170.848 2.29978 170.941 2.16066 171.003 2.00714C171.065 1.85363 171.095 1.689 171.091 1.52349C171.094 1.35948 171.063 1.19656 171.001 1.04469C170.939 0.892815 170.847 0.755158 170.73 0.640114C170.614 0.522061 170.475 0.429136 170.321 0.36711C170.168 0.305084 170.003 0.275282 169.838 0.279554C169.673 0.275987 169.51 0.306148 169.358 0.368169C169.206 0.43019 169.069 0.522749 168.954 0.640114C168.711 0.883492 168.594 1.18095 168.594 1.52349C168.594 1.86602 168.711 2.17249 168.954 2.41587C169.198 2.65925 169.495 2.77643 169.838 2.77643ZM170.622 2.34376H170.261L169.811 1.69475H169.621V2.34376H169.297V0.694198H169.811C169.991 0.694198 170.135 0.739268 170.243 0.820394C170.351 0.910534 170.414 1.02772 170.414 1.18095C170.414 1.37926 170.306 1.5325 170.099 1.61363L170.622 2.34376ZM169.63 1.42433H169.801C170.009 1.42433 170.108 1.34321 170.108 1.18997C170.108 1.03673 170.018 0.964618 169.811 0.964618H169.63V1.42433Z" fill="#191825" fill-opacity="0.37"/>
</svg>
