<svg width="187" height="32" viewBox="0 0 187 32" fill="none" xmlns="http://www.w3.org/2000/svg">
<mask id="mask0_839_1775" style="mask-type:luminance" maskUnits="userSpaceOnUse" x="0" y="0" width="187" height="32">
<path d="M186.099 0H0.103516V31.5575H186.099V0Z" fill="white"/>
</mask>
<g mask="url(#mask0_839_1775)">
<mask id="mask1_839_1775" style="mask-type:luminance" maskUnits="userSpaceOnUse" x="0" y="0" width="187" height="32">
<path d="M186.1 0.000976562H0.104004V31.5585H186.1V0.000976562Z" fill="white"/>
</mask>
<g mask="url(#mask1_839_1775)">
<path d="M73.0381 3.45588C73.0381 1.89743 74.3023 0.625977 75.868 0.625977C77.4264 0.625977 78.6979 1.89017 78.6979 3.45588C78.6434 5.01432 77.3283 6.23128 75.7663 6.17679C74.2841 6.12229 73.0962 4.9344 73.0381 3.45588Z" fill="#191825" fill-opacity="0.37"/>
</g>
<mask id="mask2_839_1775" style="mask-type:luminance" maskUnits="userSpaceOnUse" x="0" y="0" width="187" height="32">
<path d="M186.1 0.000976562H0.104004V31.5585H186.1V0.000976562Z" fill="white"/>
</mask>
<g mask="url(#mask2_839_1775)">
<path d="M117.637 22.3059C117.637 20.7366 118.901 19.4688 120.456 19.4688C122.022 19.4688 123.29 20.7366 123.29 22.3059C123.29 23.8716 122.022 25.1394 120.456 25.1394C118.901 25.1394 117.637 23.868 117.637 22.3059Z" fill="#191825" fill-opacity="0.37"/>
</g>
<mask id="mask3_839_1775" style="mask-type:luminance" maskUnits="userSpaceOnUse" x="0" y="0" width="187" height="32">
<path d="M186.1 0.000976562H0.104004V31.5585H186.1V0.000976562Z" fill="white"/>
</mask>
<g mask="url(#mask3_839_1775)">
<path d="M26.6591 21.0815C24.2288 21.0815 22.5323 19.1488 22.5323 16.3843C22.5323 13.6235 24.2252 11.6909 26.6591 11.6909C29.1039 11.6909 30.8186 13.6235 30.8186 16.3843C30.8149 19.1924 29.1439 21.0815 26.6591 21.0815ZM26.6591 7.56408C21.5115 7.56408 17.7734 11.2731 17.7734 16.3843C17.7734 21.4956 21.5151 25.2046 26.6591 25.2046C31.8321 25.2046 35.5811 21.4956 35.5811 16.388C35.5811 11.2731 31.8248 7.56408 26.6591 7.56408ZM67.5673 16.8275C67.3893 16.4824 67.1604 16.1591 66.8952 15.8758L66.739 15.7123L66.9025 15.5561C67.1386 15.3054 67.382 15.0112 67.6108 14.6697L72.1554 7.91281H66.6373L63.2225 13.1984C63.03 13.4854 62.6413 13.6198 62.0564 13.6198H61.2754V3.62619C61.2754 1.62819 60.033 1.35938 58.6852 1.35938H56.3821L56.3857 24.943H61.2717V17.8738H61.7295C62.2853 17.8738 62.6631 17.9391 62.8411 18.2407L65.5366 23.3301C66.2922 24.7106 67.0405 24.9467 68.45 24.9467H72.2062L69.4127 20.3368L67.5673 16.8275ZM91.3035 7.52775C88.8151 7.52775 87.2276 8.63209 86.3412 9.56934L86.047 9.87086L85.9416 9.46399C85.68 8.46136 84.8009 7.91645 83.475 7.91645H81.2844L81.299 24.9467H86.1559V17.1C86.1559 16.3298 86.254 15.6687 86.4575 15.0584C86.9987 13.2202 88.5063 12.0723 90.3881 12.0723C91.9029 12.0723 92.4987 12.8715 92.4987 14.9421V22.3602C92.4987 24.122 93.3124 24.9503 95.0816 24.9503H97.3883L97.3774 14.1175C97.3774 9.7982 95.2741 7.52775 91.3035 7.52775ZM75.9298 7.91281H73.6266L73.6412 21.0815V24.943H76.0969L76.1841 24.9467L77.332 24.943H78.4691V24.9394H78.48L78.4909 10.503C78.4836 8.75924 77.6517 7.91281 75.9298 7.91281ZM45.7273 21.0815C43.297 21.0815 41.6005 19.1488 41.6005 16.3843C41.6005 13.6235 43.297 11.6909 45.7273 11.6909C48.1685 11.6909 49.8868 13.6235 49.8868 16.3843C49.8831 19.1924 48.2121 21.0815 45.7273 21.0815ZM45.7273 7.56408C40.5761 7.56408 36.8344 11.2731 36.8344 16.3843C36.8344 21.4956 40.5761 25.2046 45.7273 25.2046C50.8894 25.2046 54.6493 21.4956 54.6493 16.388C54.6493 11.2731 50.893 7.56408 45.7273 7.56408Z" fill="#191825" fill-opacity="0.37"/>
</g>
</g>
<mask id="mask4_839_1775" style="mask-type:luminance" maskUnits="userSpaceOnUse" x="0" y="0" width="187" height="32">
<path d="M186.099 0H0.103516V31.5575H186.099V0Z" fill="white"/>
</mask>
<g mask="url(#mask4_839_1775)">
<mask id="mask5_839_1775" style="mask-type:luminance" maskUnits="userSpaceOnUse" x="0" y="0" width="187" height="32">
<path d="M186.06 0.62207H0.104004V31.5184H186.06V0.62207Z" fill="white"/>
</mask>
<g mask="url(#mask5_839_1775)">
<mask id="mask6_839_1775" style="mask-type:luminance" maskUnits="userSpaceOnUse" x="0" y="0" width="187" height="32">
<path d="M186.1 0.00195312H0.104492V31.5595H186.1V0.00195312Z" fill="white"/>
</mask>
<g mask="url(#mask6_839_1775)">
<path d="M149.798 21.0818C147.367 21.0818 145.671 19.1492 145.671 16.3847C145.671 13.6238 147.367 11.6912 149.798 11.6912C152.243 11.6912 153.957 13.6238 153.957 16.3847C153.957 19.1928 152.282 21.0818 149.798 21.0818ZM149.798 7.56445C144.646 7.56445 140.905 11.2735 140.905 16.3847C140.905 21.496 144.639 25.205 149.798 25.205C154.963 25.205 158.72 21.496 158.72 16.3884C158.72 11.2735 154.96 7.56445 149.798 7.56445Z" fill="#191825" fill-opacity="0.37"/>
</g>
<mask id="mask7_839_1775" style="mask-type:luminance" maskUnits="userSpaceOnUse" x="0" y="0" width="187" height="32">
<path d="M186.1 0.00195312H0.104492V31.5595H186.1V0.00195312Z" fill="white"/>
</mask>
<g mask="url(#mask7_839_1775)">
<path d="M107.612 20.3263C104.956 20.3263 104.015 18.0123 104.015 15.8436C104.015 14.8845 104.259 11.7713 107.365 11.7713C108.905 11.7713 110.957 12.2145 110.957 15.9998C110.954 19.578 109.134 20.3263 107.612 20.3263ZM113.475 7.86972C112.552 7.86972 111.844 8.23662 111.488 8.90868L111.357 9.17024L111.132 8.97044C110.347 8.29111 108.941 7.48828 106.663 7.48828C102.122 7.48828 99.0674 10.8958 99.0674 15.9743C99.0674 21.0456 102.231 24.5875 106.758 24.5875C108.302 24.5875 109.526 24.2243 110.492 23.4905L110.863 23.2107V23.683C110.863 25.9607 109.392 27.214 106.725 27.214C105.425 27.214 104.248 26.898 103.459 26.611C102.431 26.2985 101.825 26.5601 101.41 27.5882L101.022 28.5399L100.477 29.9313L100.815 30.1093C102.522 31.0175 104.745 31.5551 106.751 31.5551C110.885 31.5551 115.713 29.4409 115.713 23.4832L115.727 7.85882H113.475" fill="#191825" fill-opacity="0.37"/>
</g>
</g>
</g>
<mask id="mask8_839_1775" style="mask-type:luminance" maskUnits="userSpaceOnUse" x="0" y="0" width="187" height="32">
<path d="M186.099 0H0.103516V31.5575H186.099V0Z" fill="white"/>
</mask>
<g mask="url(#mask8_839_1775)">
<mask id="mask9_839_1775" style="mask-type:luminance" maskUnits="userSpaceOnUse" x="0" y="0" width="187" height="32">
<path d="M186.1 0.000976562H0.104004V31.5585H186.1V0.000976562Z" fill="white"/>
</mask>
<g mask="url(#mask9_839_1775)">
<path d="M8.57916 20.8812L4.62312 20.8776V16.155C4.62312 15.1415 5.01545 14.622 5.87641 14.4985H8.5719C10.4936 14.4985 11.736 15.7119 11.7433 17.6735C11.7433 19.6897 10.5299 20.8812 8.57916 20.8812ZM4.62312 8.13762V6.89522C4.62312 5.8054 5.08084 5.28956 6.09437 5.22417H8.1178C9.85062 5.22417 10.8896 6.26313 10.8896 7.99957C10.8896 9.32552 10.1776 10.8694 8.17956 10.8694H4.62312V8.13762ZM13.6214 12.8529L12.9094 12.4497L13.5306 11.9157C14.2607 11.2945 15.4704 9.88859 15.4704 7.46556C15.4704 3.75654 12.597 1.36621 8.14687 1.36621H2.49434C1.17566 1.41344 0.118535 2.49236 0.104004 3.81104V24.8518H8.25222C13.2 24.8518 16.3895 22.1599 16.3895 17.9896C16.3895 15.7518 15.3542 13.8301 13.6214 12.8529Z" fill="#191825" fill-opacity="0.37"/>
</g>
<mask id="mask10_839_1775" style="mask-type:luminance" maskUnits="userSpaceOnUse" x="0" y="0" width="187" height="32">
<path d="M186.1 0.000976562H0.104004V31.5585H186.1V0.000976562Z" fill="white"/>
</mask>
<g mask="url(#mask10_839_1775)">
<path d="M180.407 7.58273C178.38 7.58637 176.458 8.51998 175.194 10.1111L174.842 10.5543L174.566 10.0566C173.665 8.41463 172.121 7.58637 169.963 7.58637C167.707 7.58637 166.192 8.84329 165.488 9.59527L165.03 10.0929L164.852 9.43543C164.598 8.49092 163.755 7.97144 162.483 7.97144H160.442L160.42 24.9363H165.055V17.4456C165.055 16.7881 165.135 16.1414 165.299 15.4621C165.742 13.653 166.959 11.7059 169.004 11.8984C170.261 12.0219 170.879 12.9955 170.879 14.8736V24.9326H175.547V17.442C175.547 16.621 175.623 16.0034 175.808 15.3931C176.179 13.6639 177.454 11.8911 179.426 11.8911C180.854 11.8911 181.384 12.6976 181.384 14.8736V22.4515C181.384 24.1625 182.147 24.9326 183.862 24.9326H186.042L186.045 14.1035C186.06 9.77327 184.153 7.58273 180.407 7.58273ZM138.22 19.044C138.206 19.0585 136.211 21.1655 133.585 21.1655C131.191 21.1655 128.775 19.6979 128.775 16.4212C128.775 13.5913 130.65 11.6114 133.334 11.6114C134.206 11.6114 135.194 11.9238 135.35 12.447L135.372 12.5341C135.576 13.2789 136.255 13.7911 137.022 13.7874L139.561 13.7911V11.5678C139.561 8.63622 135.837 7.5791 133.327 7.5791C127.965 7.5791 124.078 11.3099 124.078 16.4502C124.078 21.5869 127.925 25.3177 133.229 25.3177C137.832 25.3177 140.331 22.2917 140.356 22.2662L140.487 22.1027L138.475 18.7643L138.22 19.044Z" fill="#191825" fill-opacity="0.37"/>
</g>
</g>
</svg>
