<svg width="102" height="32" viewBox="0 0 102 32" fill="none" xmlns="http://www.w3.org/2000/svg">
<path d="M53.3847 7.9293C53.3847 9.06661 52.4683 9.9824 51.331 9.9824C50.1937 9.9824 49.2779 9.06661 49.2779 7.9293C49.2779 6.79199 50.1625 5.87621 51.331 5.87621C52.5005 5.90776 53.3847 6.82386 53.3847 7.9293ZM44.9187 12.0677V12.5732C44.9187 12.5732 43.9398 11.309 41.8548 11.309C38.4119 11.309 35.7265 13.9311 35.7265 17.5636C35.7265 21.1649 38.3804 23.8182 41.8548 23.8182C43.9713 23.8182 44.9187 22.5231 44.9187 22.5231V23.0599C44.9187 23.3127 45.1086 23.5017 45.3611 23.5017H47.9194V11.624H45.3611C45.1086 11.6249 44.9187 11.8465 44.9187 12.0677ZM44.9187 19.6801C44.4453 20.3753 43.4973 20.9755 42.3603 20.9755C40.3388 20.9755 38.7906 19.712 38.7906 17.5636C38.7906 15.4155 40.3388 14.152 42.3603 14.152C43.4661 14.152 44.4769 14.7838 44.9187 15.4471V19.6801ZM49.815 11.6249H52.8473V23.5026H49.815V11.6249ZM95.1133 11.3087C93.0284 11.3087 92.0489 12.5729 92.0489 12.5729V5.90777H89.0165V23.5026H91.5755C91.8283 23.5026 92.0173 23.2814 92.0173 23.0602V22.5234C92.0173 22.5234 92.9968 23.8185 95.0812 23.8185C98.5246 23.8185 101.209 21.1658 101.209 17.5646C101.209 13.9633 98.5246 11.3087 95.1133 11.3087ZM94.6078 20.9437C93.4386 20.9437 92.5228 20.3441 92.0489 19.6486V15.4155C92.5228 14.7838 93.5336 14.1204 94.6078 14.1204C96.6293 14.1204 98.1772 15.384 98.1772 17.5321C98.1772 19.6801 96.6297 20.9437 94.6078 20.9437ZM87.4375 16.4585V23.5342H84.4045V16.8056C84.4045 14.8475 83.7728 14.0573 82.068 14.0573C81.1523 14.0573 80.2043 14.5313 79.6031 15.2265V23.5029H76.5715V11.6252H78.9714C79.2241 11.6252 79.4138 11.8465 79.4138 12.0677V12.5732C80.2983 11.6568 81.4669 11.309 82.6354 11.309C83.9624 11.309 85.0682 11.6887 85.9527 12.4467C87.0263 13.3312 87.4375 14.4682 87.4375 16.4585ZM69.2102 11.3087C67.1259 11.3087 66.1463 12.5729 66.1463 12.5729V5.90777H63.114V23.5026H65.6724C65.9251 23.5026 66.1148 23.2814 66.1148 23.0602V22.5234C66.1148 22.5234 67.0943 23.8185 69.1786 23.8185C72.6221 23.8185 75.307 21.1658 75.307 17.5646C75.3385 13.963 72.6537 11.3087 69.2102 11.3087ZM68.7047 20.9437C67.5361 20.9437 66.6203 20.3441 66.1463 19.6486V15.4155C66.6203 14.7838 67.6311 14.1204 68.7047 14.1204C70.7268 14.1204 72.2744 15.384 72.2744 17.5321C72.2744 19.6801 70.7268 20.9437 68.7047 20.9437ZM60.492 11.3087C61.4078 11.3087 61.8817 11.4671 61.8817 11.4671V14.2782C61.8817 14.2782 59.3547 13.4252 57.7756 15.2262V23.5339H54.7426V11.6249H57.3016C57.5544 11.6249 57.7434 11.8461 57.7434 12.0674V12.5729C58.3127 11.9093 59.5446 11.3087 60.492 11.3087ZM28.9985 22.4284C28.8407 22.0494 28.6826 21.6389 28.5249 21.2911C28.2718 20.7228 28.019 20.1854 27.7984 19.6801L27.7669 19.6486C25.5869 14.91 23.2498 10.1089 20.7855 5.37099L20.6909 5.18101C20.4317 4.6895 20.1791 4.19454 19.9332 3.69626C19.617 3.12729 19.3014 2.52771 18.7959 1.95874C17.7851 0.695198 16.3319 0 14.7844 0C13.2046 0 11.7833 0.695202 10.7413 1.89531C10.2673 2.46365 9.91956 3.06386 9.60399 3.63284C9.35745 4.1308 9.10487 4.62575 8.84631 5.11758L8.75132 5.30755C6.31892 10.0455 3.94994 14.8469 1.77031 19.5852L1.73844 19.648C1.51754 20.1541 1.26445 20.6909 1.01168 21.2589C0.853897 21.6067 0.696113 21.9857 0.538329 22.3962C0.127458 23.5648 0.000908934 24.6705 0.159324 25.8082C0.506766 28.1775 2.08587 30.1668 4.26582 31.052C5.08725 31.3997 5.94023 31.5575 6.82445 31.5575C7.07722 31.5575 7.3928 31.526 7.64589 31.4941C8.68853 31.3679 9.7624 31.0207 10.805 30.4205C12.1001 29.6938 13.3321 28.6518 14.7219 27.1354C16.1116 28.6518 17.3752 29.6938 18.6387 30.4205C19.6817 31.0207 20.7552 31.3679 21.7976 31.4941C22.0503 31.5263 22.3665 31.5575 22.6193 31.5575C23.5038 31.5575 24.3881 31.3997 25.1776 31.052C27.3891 30.1668 28.9367 28.1459 29.2844 25.8082C29.5353 24.7027 29.4091 23.5976 28.9985 22.4284ZM14.7525 24.071C13.0465 21.9229 11.9408 19.9013 11.5621 18.196C11.4043 17.4693 11.3724 16.8375 11.4674 16.2688C11.5302 15.7633 11.7202 15.3209 11.973 14.9419C12.5732 14.0895 13.5839 13.5521 14.7528 13.5521C15.922 13.5521 16.9643 14.0576 17.533 14.9419C17.7857 15.3209 17.9751 15.7636 18.0388 16.2688C18.1332 16.8378 18.1016 17.5008 17.9438 18.196C17.5636 19.8698 16.4578 21.8916 14.7525 24.071ZM27.3557 25.5557C27.1348 27.1983 26.029 28.6202 24.4815 29.252C23.7235 29.5675 22.9017 29.6625 22.0809 29.5675C21.2914 29.4725 20.5012 29.2198 19.6804 28.7464C18.5431 28.114 17.4061 27.1354 16.0791 25.6819C18.1638 23.1236 19.4273 20.7856 19.9013 18.7012C20.1225 17.7217 20.1544 16.8375 20.0591 16.0158C19.9332 15.2262 19.6485 14.4994 19.2064 13.8677C18.2266 12.4457 16.5837 11.6249 14.7522 11.6249C12.9206 11.6249 11.2778 12.4779 10.2986 13.8677C9.85644 14.4994 9.57179 15.2262 9.44557 16.0158C9.31934 16.8375 9.35058 17.7533 9.60335 18.7012C10.077 20.7856 11.3721 23.1549 13.4252 25.7135C12.1301 27.1667 10.9612 28.1462 9.82394 28.778C9.00251 29.252 8.21328 29.5047 7.42372 29.5991C6.57106 29.6941 5.74932 29.5675 5.02288 29.2835C3.47533 28.6518 2.36957 27.2298 2.14867 25.5873C2.054 24.7977 2.1168 24.0082 2.433 23.1236C2.52736 22.8074 2.68577 22.4919 2.84356 22.1129C3.06477 21.6073 3.31691 21.0699 3.57 20.5331L3.60187 20.4703C5.78119 15.7633 8.11861 10.9619 10.551 6.28708L10.6457 6.09711C10.8988 5.62376 11.1515 5.11821 11.404 4.64423C11.6568 4.13869 11.9408 3.6647 12.2885 3.25383C12.9519 2.49647 13.8361 2.08528 14.8156 2.08528C15.7951 2.08528 16.6794 2.49647 17.3427 3.25383C17.6904 3.66565 17.9744 4.13963 18.2272 4.64423C18.4803 5.11821 18.7331 5.62376 18.9852 6.09711L19.0802 6.28708C21.4755 10.9813 23.7819 15.7205 25.9981 20.5019V20.5334C26.2512 21.0396 26.4721 21.6076 26.7249 22.1138C26.8826 22.4922 27.0407 22.8077 27.1354 23.1239C27.3875 23.9444 27.4822 24.7346 27.3557 25.5557Z" fill="#191825" fill-opacity="0.37"/>
</svg>
